<?xml version="1.0" encoding="UTF-8"?>
<svg id="Layer_1" xmlns="http://www.w3.org/2000/svg" version="1.1" xmlns:xlink="http://www.w3.org/1999/xlink" viewBox="0 0 146.7 80.7">
  <!-- Generator: Adobe Illustrator 29.4.0, SVG Export Plug-In . SVG Version: 2.1.0 Build 152)  -->
  <defs>
    <style>
      .st0 {
        fill: url(#linear-gradient2);
      }

      .st1 {
        fill: #0582f6;
      }

      .st2 {
        fill: url(#linear-gradient1);
      }

      .st3 {
        fill: url(#linear-gradient7);
      }

      .st4 {
        fill: url(#linear-gradient4);
      }

      .st5 {
        fill: url(#linear-gradient5);
      }

      .st6 {
        fill: url(#linear-gradient3);
      }

      .st7 {
        fill: url(#linear-gradient6);
      }

      .st8 {
        fill: url(#linear-gradient);
      }
    </style>
    <linearGradient id="linear-gradient" x1="55.7" y1="72.7" x2="73.8" y2="59.9" gradientTransform="translate(0 90) scale(1 -1)" gradientUnits="userSpaceOnUse">
      <stop offset="0" stop-color="#022454"/>
      <stop offset=".1" stop-color="#033775"/>
      <stop offset=".2" stop-color="#03438a"/>
      <stop offset=".5" stop-color="#045eb8"/>
      <stop offset=".7" stop-color="#0572da"/>
      <stop offset=".9" stop-color="#057eef"/>
      <stop offset="1" stop-color="#0582f6"/>
    </linearGradient>
    <linearGradient id="linear-gradient1" x1="55.3" y1="68.7" x2="82.6" y2="68.7" gradientTransform="translate(0 90) scale(1 -1)" gradientUnits="userSpaceOnUse">
      <stop offset="0" stop-color="#022454"/>
      <stop offset=".2" stop-color="#033775"/>
      <stop offset=".2" stop-color="#03438a"/>
      <stop offset=".4" stop-color="#045eb8"/>
      <stop offset=".6" stop-color="#0572da"/>
      <stop offset=".7" stop-color="#057eef"/>
      <stop offset=".8" stop-color="#0582f6"/>
    </linearGradient>
    <linearGradient id="linear-gradient2" x1="41" y1="-10.8" x2="41" y2="43.2" gradientTransform="translate(0 90) scale(1 -1)" gradientUnits="userSpaceOnUse">
      <stop offset="0" stop-color="#022454"/>
      <stop offset=".2" stop-color="#022556"/>
      <stop offset=".2" stop-color="#02295d"/>
      <stop offset=".3" stop-color="#033068"/>
      <stop offset=".3" stop-color="#033775"/>
      <stop offset=".4" stop-color="#03438a"/>
      <stop offset=".6" stop-color="#045eb8"/>
      <stop offset=".8" stop-color="#0572da"/>
      <stop offset=".9" stop-color="#057eef"/>
      <stop offset="1" stop-color="#0582f6"/>
    </linearGradient>
    <linearGradient id="linear-gradient3" x1="67.4" y1="-10.8" x2="67.4" y2="43.2" gradientTransform="translate(0 90) scale(1 -1)" gradientUnits="userSpaceOnUse">
      <stop offset="0" stop-color="#022454"/>
      <stop offset=".2" stop-color="#022556"/>
      <stop offset=".2" stop-color="#02295d"/>
      <stop offset=".3" stop-color="#033068"/>
      <stop offset=".3" stop-color="#033775"/>
      <stop offset=".4" stop-color="#03438a"/>
      <stop offset=".6" stop-color="#045eb8"/>
      <stop offset=".8" stop-color="#0572da"/>
      <stop offset=".9" stop-color="#057eef"/>
      <stop offset="1" stop-color="#0582f6"/>
    </linearGradient>
    <linearGradient id="linear-gradient4" x1="90.7" y1="-10.8" x2="90.7" y2="43.2" gradientTransform="translate(0 90) scale(1 -1)" gradientUnits="userSpaceOnUse">
      <stop offset="0" stop-color="#022454"/>
      <stop offset=".2" stop-color="#022556"/>
      <stop offset=".2" stop-color="#02295d"/>
      <stop offset=".3" stop-color="#033068"/>
      <stop offset=".3" stop-color="#033775"/>
      <stop offset=".4" stop-color="#03438a"/>
      <stop offset=".6" stop-color="#045eb8"/>
      <stop offset=".8" stop-color="#0572da"/>
      <stop offset=".9" stop-color="#057eef"/>
      <stop offset="1" stop-color="#0582f6"/>
    </linearGradient>
    <linearGradient id="linear-gradient5" x1="111.4" y1="-10.8" x2="111.4" y2="43.2" gradientTransform="translate(0 90) scale(1 -1)" gradientUnits="userSpaceOnUse">
      <stop offset="0" stop-color="#022454"/>
      <stop offset=".2" stop-color="#022556"/>
      <stop offset=".2" stop-color="#02295d"/>
      <stop offset=".3" stop-color="#033068"/>
      <stop offset=".3" stop-color="#033775"/>
      <stop offset=".4" stop-color="#03438a"/>
      <stop offset=".6" stop-color="#045eb8"/>
      <stop offset=".8" stop-color="#0572da"/>
      <stop offset=".9" stop-color="#057eef"/>
      <stop offset="1" stop-color="#0582f6"/>
    </linearGradient>
    <linearGradient id="linear-gradient6" x1="132.1" y1="-10.8" x2="132.1" y2="43.2" gradientTransform="translate(0 90) scale(1 -1)" gradientUnits="userSpaceOnUse">
      <stop offset="0" stop-color="#022454"/>
      <stop offset=".2" stop-color="#022556"/>
      <stop offset=".2" stop-color="#02295d"/>
      <stop offset=".3" stop-color="#033068"/>
      <stop offset=".3" stop-color="#033775"/>
      <stop offset=".4" stop-color="#03438a"/>
      <stop offset=".6" stop-color="#045eb8"/>
      <stop offset=".8" stop-color="#0572da"/>
      <stop offset=".9" stop-color="#057eef"/>
      <stop offset="1" stop-color="#0582f6"/>
    </linearGradient>
    <linearGradient id="linear-gradient7" x1="14.4" y1="-10.8" x2="14.4" y2="43.2" gradientTransform="translate(0 90) scale(1 -1)" gradientUnits="userSpaceOnUse">
      <stop offset="0" stop-color="#022454"/>
      <stop offset=".2" stop-color="#022556"/>
      <stop offset=".2" stop-color="#02295d"/>
      <stop offset=".3" stop-color="#033068"/>
      <stop offset=".3" stop-color="#033775"/>
      <stop offset=".4" stop-color="#03438a"/>
      <stop offset=".6" stop-color="#045eb8"/>
      <stop offset=".8" stop-color="#0572da"/>
      <stop offset=".9" stop-color="#057eef"/>
      <stop offset="1" stop-color="#0582f6"/>
    </linearGradient>
  </defs>
  <g>
    <g>
      <path class="st1" d="M55.2,24.4c0-7.5,8-17.6,19.2-11.5,4.2,2.3,7.1-2,4.1-4.1-2.7-1.9-6-3-9.6-3-9.1,0-16.4,7-16.4,15.6s3.2,10.6,7.9,13.3c-3.2-2.8-5.1-6.6-5.1-10.4Z"/>
      <path class="st8" d="M57.8,20.8c-.1,7.5,7.2,13.1,15.3,9.5,4.4-1.9,6.9,2.5,3.7,4.3-2.8,1.7-6.2,2.5-9.8,2.3-9.1-.7-13.3-6.9-12.7-15.6.4-5.6,6.6-10.6,12.9-10.3-6.5.8-9.4,5.9-9.4,9.8Z"/>
    </g>
    <circle class="st1" cx="76.7" cy="11" r="3.4"/>
    <circle class="st1" cx="76.7" cy="31.7" r="3.4"/>
  </g>
  <path class="st2" d="M86.5,13.2c-1.9,0-3.7.7-5.1,1.8-.2.1-.4.3-.6.4-.2.2-.3.3-.5.4-1,.8-2.2,2.8-3.6,2.8s-1.8-.5-2.8-1.2c-.2-.2-.4-.3-.5-.5-1-.8-2.2-1.2-3.6-1.2-3.2,0-5.8,2.6-5.8,5.8s2.6,5.8,5.8,5.8,2.6-.5,3.6-1.2c.2-.2.3-.3.5-.5,1-.8,1.4-1.2,2.8-1.2s2.6,1.3,3.6,2.1c.2.1.3.3.5.4.1,0,.2.2.3.2,1.4,1.3,3.3,2,5.3,2,4.4,0,8.1-3.6,8.1-8.1,0-4.4-3.6-8-8.1-8Z"/>
  <g>
    <path class="st0" d="M41,50.8c-3.4,0-6.2,1.2-8.6,3.5-2.3,2.3-3.5,5.2-3.5,8.5s1.2,6.2,3.5,8.5c2.3,2.3,5.2,3.5,8.6,3.5s6.2-1.2,8.6-3.5c2.3-2.3,3.5-5.1,3.5-8.5s-1.2-6.2-3.5-8.5c-2.3-2.3-5.2-3.5-8.6-3.5ZM46.3,68.3c-1.4,1.4-3.2,2.2-5.2,2.2s-3.8-.7-5.2-2.2c-1.4-1.4-2.1-3.2-2.1-5.4s.7-4,2.1-5.4,3.2-2.2,5.2-2.2,3.8.7,5.2,2.2c1.4,1.5,2.1,3.3,2.1,5.4s-.7,4-2.1,5.4Z"/>
    <path class="st6" d="M74.4,54.5c-2.3-2.1-5.3-3.2-9.1-3.2h-8.5v22.9h8.4c3.8,0,6.8-1.1,9.1-3.2,2.3-2.1,3.5-4.9,3.5-8.3s-1.2-6.2-3.5-8.3ZM71,68.1c-1.4,1.3-3.3,2-5.8,2h-3.8v-14.5h3.8c2.4,0,4.3.7,5.8,2s2.2,3.1,2.2,5.3-.7,4-2.2,5.3Z"/>
    <path class="st4" d="M88.5,51.4l-9.9,22.9h5l2-4.9h10.1l2,4.9h5l-9.9-22.9s-4.3,0-4.3,0ZM87.3,65.2l3.3-8.2,3.3,8.2h-6.7Z"/>
    <polygon class="st5" points="121.3 51.4 101.4 51.4 101.4 55.6 109 55.6 109 74.3 113.7 74.3 113.7 55.6 121.3 55.6 121.3 51.4"/>
    <path class="st7" d="M134.2,51.4h-4.4l-9.9,22.9h5l2-4.9h10.1l2,4.9h5l-9.9-22.9ZM128.7,65.2l3.4-8.2,3.3,8.2h-6.7Z"/>
    <path class="st3" d="M14.9,55.2c1.7,0,3.1.5,4.3,1.4.8.6,1.1,1.6,1.8,2.4s2.4.9,3.2.8c.5,0,1.2-.4,1.8-.9-.6-2.4-1.9-4.3-3.8-5.8-2.1-1.6-4.5-2.4-7.3-2.4s-6.2,1.2-8.6,3.5c-2.3,2.3-3.5,5.2-3.5,8.5s1.2,6.2,3.5,8.5c2.3,2.3,5.2,3.5,8.6,3.5s5.3-.8,7.4-2.4c1.7-1.3,2.9-3.1,3.6-5.4-.5-.3-1.2-.4-1.6-.5-1,0-2.9.3-3.9,1.2-.4.4-.7.9-1.2,1.2-1.2,1-2.7,1.4-4.3,1.4s-3.8-.7-5.2-2.2-2.1-3.3-2.1-5.4.7-4,2.1-5.4c1.4-1.5,3.2-2.2,5.2-2.2Z"/>
  </g>
</svg>